<?xml version="1.0" encoding="UTF-8"?>
<svg xmlns="http://www.w3.org/2000/svg" width="581" height="238" viewBox="145 50 300 190">
  <g fill="none" fill-rule="evenodd">
    <path fill="#000" d="M512.52,109.32 L513.617,109.32 C514.214,109.32 514.513,109.037 514.513,108.472 C514.513,108.206 514.436,108.004 514.281,107.866 C514.125,107.727 513.905,107.658 513.617,107.658 L512.52,107.658 L512.52,109.32 Z M511.739,106.96 L513.633,106.96 C514.176,106.96 514.597,107.093 514.896,107.359 C515.195,107.624 515.345,107.996 515.345,108.472 C515.345,108.816 515.253,109.115 515.071,109.37 C514.887,109.624 514.63,109.801 514.298,109.901 L515.494,111.795 L514.564,111.795 L513.451,110.017 L512.52,110.017 L512.52,111.795 L511.739,111.795 L511.739,106.96 Z M513.367,113.224 C514.475,113.224 515.353,112.881 516.001,112.194 C516.649,111.507 516.973,110.588 516.973,109.436 C516.973,108.284 516.649,107.365 516.001,106.678 C515.353,105.991 514.475,105.647 513.367,105.647 C512.26,105.647 511.382,105.991 510.734,106.678 C510.086,107.365 509.762,108.284 509.762,109.436 C509.762,110.588 510.086,111.507 510.734,112.194 C511.382,112.881 512.26,113.224 513.367,113.224 Z M513.367,113.922 C512.492,113.922 511.719,113.723 511.049,113.324 C510.379,112.925 509.865,112.388 509.504,111.712 C509.144,111.037 508.964,110.278 508.964,109.436 C508.964,108.538 509.16,107.749 509.554,107.068 C509.947,106.387 510.476,105.863 511.141,105.498 C511.805,105.132 512.548,104.95 513.367,104.95 C514.242,104.95 515.015,105.149 515.686,105.548 C516.356,105.946 516.87,106.484 517.23,107.16 C517.59,107.835 517.77,108.594 517.77,109.436 C517.77,110.333 517.574,111.122 517.181,111.804 C516.787,112.485 516.258,113.008 515.594,113.374 C514.929,113.739 514.187,113.922 513.367,113.922 Z M348.458,185.34 C349.803,185.34 350.733,184.406 350.733,183.063 L350.733,116.404 L373.365,116.404 C374.71,116.404 375.638,115.475 375.638,114.13 L375.638,104.935 C375.638,103.591 374.71,102.66 373.365,102.66 L313.114,102.66 C311.768,102.66 310.839,103.591 310.839,104.935 L310.839,114.13 C310.839,115.475 311.768,116.404 313.114,116.404 L335.745,116.404 L335.745,183.063 C335.745,184.406 336.675,185.34 338.018,185.34 L348.458,185.34 Z M451.593,182.446 C452.939,183.891 452.111,185.338 450.453,185.338 L437.331,185.338 C435.576,185.338 434.642,184.925 433.504,183.58 L425.654,174.902 C420.383,181.928 413.041,187.2 400.85,187.2 C385.761,187.2 373.874,178.106 373.874,162.501 C373.874,150.509 380.284,144.103 389.996,138.728 C385.245,133.25 383.074,127.463 383.074,122.402 C383.074,109.583 392.064,100.8 405.604,100.8 C419.452,100.8 427.926,108.966 427.926,121.058 C427.926,131.389 420.486,137.178 412.629,141.52 L424.204,154.026 L430.716,142.654 C431.543,141.312 432.474,140.795 434.126,140.795 L444.149,140.795 C445.804,140.795 446.736,141.933 445.703,143.69 L434.126,163.529 L451.593,182.446 L451.593,182.446 Z M405.811,113.614 C400.436,113.614 397.338,117.025 397.338,121.574 C397.338,125.088 399.193,128.187 403.434,132.734 C410.77,128.497 413.872,125.916 413.872,121.366 C413.872,117.128 411.186,113.614 405.811,113.614 L405.811,113.614 Z M401.16,174.176 C407.77,174.176 412.217,170.974 415.835,165.496 L399.094,147.512 C392.685,151.13 388.55,154.747 388.55,161.983 C388.55,169.116 394.335,174.176 401.16,174.176 L401.16,174.176 Z M320.886,182.65 C321.401,183.995 320.574,185.34 319.129,185.34 L308.379,185.34 C306.831,185.34 305.899,184.617 305.383,183.165 L299.285,165.6 L265.907,165.6 L259.804,183.165 C259.288,184.617 258.36,185.34 256.808,185.34 L246.681,185.34 C245.338,185.34 244.408,183.995 244.926,182.65 L272.934,104.726 C273.45,103.279 274.379,102.66 275.926,102.66 L289.778,102.66 C291.327,102.66 292.36,103.279 292.877,104.726 L320.886,182.65 L320.886,182.65 Z M294.53,152.061 L282.647,117.956 L270.657,152.061 L294.53,152.061 Z M467.922,185.34 C466.579,185.34 465.65,184.406 465.65,183.063 L465.65,116.404 L443.014,116.404 C441.668,116.404 440.741,115.475 440.741,114.13 L440.741,104.935 C440.741,103.591 441.668,102.66 443.014,102.66 L503.267,102.66 C504.609,102.66 505.539,103.591 505.539,104.935 L505.539,114.13 C505.539,115.475 504.609,116.404 503.267,116.404 L480.633,116.404 L480.633,183.063 C480.633,184.406 479.703,185.34 478.361,185.34 L467.922,185.34 L467.922,185.34 Z"/>
    <path fill="#00A7D8" d="M180.83,82.151 C170.037,75.68 157.509,72 144,72 C130.395,72 117.491,75.812 106.66,82.453 C103.415,84.454 101.585,86.057 101.585,88.114 C101.585,94.189 115.774,100.717 140.943,100.717 C165.849,100.717 185.17,93.566 185.17,86.679 C185.17,85.038 183.736,83.887 180.83,82.151 M191.547,90.151 C191.848,90.623 192,91.133 192,91.812 C192,99.812 167.528,113.962 128.566,113.962 C99.943,113.962 94.584,103.34 94.584,96.584 C94.584,94.169 95.509,91.698 97.547,89.188 C97.66,89.037 97.566,88.982 97.434,89.094 C93.717,92.245 90.302,95.792 87.302,99.623 C85.869,101.434 84.98,103.038 84.98,104 C84.98,118 120.075,128.15 152.887,128.15 C187.848,128.15 203.452,116.737 203.452,106.699 C203.452,103.113 202.056,101.019 198.49,96.963 C196.169,94.321 193.98,92.171 191.66,90.056 C191.547,89.962 191.472,90.038 191.547,90.151 M78.943,113.113 C76.831,117.302 74.491,124.378 73.792,128.038 C73.491,129.604 73.622,130.358 74.17,131.528 C78.584,140.906 100.925,155.905 153.038,155.905 C184.83,155.905 209.527,148.094 213.528,133.831 C214.264,131.207 214.301,128.435 213.357,124.699 C212.302,120.529 210.321,115.661 208.641,112.245 C208.584,112.133 208.49,112.151 208.509,112.283 C209.132,130.98 157,143.037 130.698,143.037 C102.208,143.037 78.433,131.68 78.433,117.341 C78.433,115.963 78.717,114.585 79.076,113.151 C79.113,113.019 79,113 78.943,113.113 M129.528,172.869 C92.679,172.869 75.302,155.698 72.152,143.981 C72.113,143.811 72,143.85 72,143.999 C72,147.943 72.395,153.038 73.076,156.415 C73.396,158.056 74.736,160.642 76.698,162.698 C85.623,172.001 107.868,185.038 146.396,185.038 C198.887,185.038 210.887,167.548 213.338,161.793 C215.094,157.679 216,150.245 216,143.999 C216,142.49 215.961,141.283 215.904,140.095 C215.904,139.906 215.792,139.887 215.754,140.076 C213.131,154.15 168.283,172.869 129.528,172.869 M148.887,204.547 C166.604,204.547 186.075,199.718 197.716,190.15 C200.906,187.548 203.943,184.076 206.66,179.415 C208.226,176.735 209.754,173.548 210.999,170.415 C211.056,170.266 210.962,170.189 210.849,170.358 C200.018,186.303 168.66,196.245 136.283,196.245 C113.396,196.245 88.773,188.925 79.133,174.943 C79.038,174.811 78.943,174.867 79,175.019 C87.981,194.113 115.226,204.547 148.887,204.547 M99.849,200.868 C112.057,210.321 127.378,216 144,216 C162.188,216 178.773,209.245 191.433,198.151 C191.584,198.018 191.509,197.924 191.359,198.018 C185.679,201.811 169.49,210.095 144,210.095 C121.849,210.095 107.849,205.15 99.943,200.736 C99.792,200.66 99.736,200.773 99.849,200.868"/>
  </g>
</svg>
